<svg xmlns="http://www.w3.org/2000/svg" width="44" height="44" viewBox="0 0 44 44">
  <rect x="10" y="2" width="20" height="24" fill="#ffffff" stroke="#aaaaaa" stroke-width="1"/>
  <line x1="13" y1="7" x2="27" y2="7" stroke="#0000cc" stroke-width="1.5"/>
  <line x1="13" y1="11" x2="27" y2="11" stroke="#0000cc" stroke-width="1.5"/>
  <line x1="13" y1="15" x2="27" y2="15" stroke="#0000cc" stroke-width="1.5"/>
  <line x1="13" y1="19" x2="22" y2="19" stroke="#0000cc" stroke-width="1.5"/>
  <rect x="4" y="20" width="36" height="18" rx="2" fill="#b0b0b0" stroke="#606060" stroke-width="1.5"/>
  <rect x="4" y="20" width="36" height="3" fill="#d0d0d0"/>
  <rect x="4" y="20" width="3" height="18" fill="#d0d0d0"/>
  <rect x="4" y="35" width="36" height="3" fill="#888888"/>
  <rect x="10" y="24" width="24" height="3" rx="1" fill="#888888"/>
  <rect x="12" y="33" width="20" height="10" fill="#ffffff" stroke="#aaaaaa" stroke-width="1"/>
  <line x1="15" y1="37" x2="29" y2="37" stroke="#0000cc" stroke-width="1.2"/>
  <line x1="15" y1="40" x2="29" y2="40" stroke="#0000cc" stroke-width="1.2"/>
  <circle cx="33" cy="27" r="3" fill="#00aa00" stroke="#006600" stroke-width="0.8"/>
  <circle cx="26" cy="27" r="3" fill="#cc0000" stroke="#880000" stroke-width="0.8"/>
</svg>
